# xmcd
#
# Track frame offsets:
# 150
# 16205
# 37507
# 68417
# 85190
#
# Disc length: 1332 seconds
#
# Revision: 0
# Processed by: cddbd v1.4PL0 Copyright (c) Steve Scherf et al.
# Submitted via: Audion 3.0.2 (http://www.panic.com/audion/)
#
DISCID=26053205
DTITLE=Die Laughing - Running from the Sun
DYEAR=1900
DGENRE=
TTITLE0=Noticed
TTITLE1=Perfect World
TTITLE2=Running from the Sun
TTITLE3=Heaven Knows
TTITLE4=Falling Down Again
EXTD=
EXTT0=
EXTT1=
EXTT2=
EXTT3=
EXTT4=
PLAYORDER=
